<?xml version="1.0" encoding="UTF-8"?>
<svg version="1.1" xmlns="http://www.w3.org/2000/svg" width="48" height="48">
<path d="M0 0 C3.96 0 7.92 0 12 0 C12 6 12 6 10.5 7.875 C10.005 8.24625 9.51 8.6175 9 9 C11.31 9.33 13.62 9.66 16 10 C16 14.29 16 18.58 16 23 C17.98 23 19.96 23 22 23 C22 26.96 22 30.92 22 35 C22.66 35 23.32 35 24 35 C24 35.99 24 36.98 24 38 C12.12 38 0.24 38 -12 38 C-12 37.01 -12 36.02 -12 35 C-11.34 35 -10.68 35 -10 35 C-10 31.04 -10 27.08 -10 23 C-8.02 23 -6.04 23 -4 23 C-4 18.71 -4 14.42 -4 10 C-0.535 9.505 -0.535 9.505 3 9 C2.505 8.62875 2.01 8.2575 1.5 7.875 C0 6 0 6 0 0 Z " fill="#8CC7F7" transform="translate(18,5)"/>
<path d="M0 0 C3.55400112 0.45346107 6.17957902 0.23850968 9.6875 -0.5 C12.0281065 -0.22230092 14.36374308 0.10539977 16.6875 0.5 C17.3475 0.5 18.0075 0.5 18.6875 0.5 C18.6875 2.15 18.6875 3.8 18.6875 5.5 C19.3475 5.5 20.0075 5.5 20.6875 5.5 C20.6875 6.49 20.6875 7.48 20.6875 8.5 C8.8075 8.5 -3.0725 8.5 -15.3125 8.5 C-15.3125 7.51 -15.3125 6.52 -15.3125 5.5 C-14.6525 5.5 -13.9925 5.5 -13.3125 5.5 C-13.3125 3.85 -13.3125 2.2 -13.3125 0.5 C-12.19875 0.520625 -11.085 0.54125 -9.9375 0.5625 C-6.10167718 0.49636512 -3.82697597 -0.56600653 0 0 Z " fill="#43A5F5" transform="translate(21.3125,34.5)"/>
<path d="M0 0 C3.96 0 7.92 0 12 0 C12 6 12 6 10.5 7.875 C10.005 8.24625 9.51 8.6175 9 9 C11.31 9.33 13.62 9.66 16 10 C16 12.31 16 14.62 16 17 C11.909982 17.70788773 8.97930299 17.99482575 5 17 C2.66508361 17.32205743 0.33157492 17.65458149 -2 18 C-2.66 17.67 -3.32 17.34 -4 17 C-4 14.69 -4 12.38 -4 10 C-0.535 9.505 -0.535 9.505 3 9 C2.505 8.62875 2.01 8.2575 1.5 7.875 C0 6 0 6 0 0 Z " fill="#8DC7F7" transform="translate(18,5)"/>
<path d="M0 0 C3.24102432 0.42199355 3.24102432 0.42199355 6.5 0.5625 C6.5 2.5425 6.5 4.5225 6.5 6.5625 C-0.1 6.5625 -6.7 6.5625 -13.5 6.5625 C-13.5 4.5825 -13.5 2.6025 -13.5 0.5625 C-12.38625 0.583125 -11.2725 0.60375 -10.125 0.625 C-6.26581684 0.55846236 -3.87546704 -0.50959875 0 0 Z " fill="#42A5F5" transform="translate(27.5,21.4375)"/>
<path d="M0 0 C11.88 0 23.76 0 36 0 C36 0.99 36 1.98 36 3 C24.12 3 12.24 3 0 3 C0 2.01 0 1.02 0 0 Z " fill="#3E50B4" transform="translate(6,40)"/>
<path d="M0 0 C3.96 0 7.92 0 12 0 C12 1.98 12 3.96 12 6 C9.5 8.375 9.5 8.375 7 10 C4.08482708 8.92598892 2.22189824 8.22189824 0 6 C0 4.02 0 2.04 0 0 Z " fill="#FF3F83" transform="translate(18,5)"/>
<path d="M0 0 C0.86625 0.185625 1.7325 0.37125 2.625 0.5625 C5.94320197 1.15841179 5.94320197 1.15841179 9 0.5 C12.31076923 -0.05179487 14.71076923 0.45179487 18 1 C20.00109278 0.67329097 22.00116131 0.34022786 24 0 C25.67099977 0.31088368 27.33871537 0.64080332 29 1 C29.99 0.67 30.98 0.34 32 0 C32 0.99 32 1.98 32 3 C27.58183928 3.77967542 24.35047022 3.87009404 20 3 C17.66585471 3.32759934 15.33247761 3.66073053 13 4 C11.66666667 3.66666667 10.33333333 3.33333333 9 3 C6.66508361 3.32205743 4.33157492 3.65458149 2 4 C1.34 3.67 0.68 3.34 0 3 C0 2.01 0 1.02 0 0 Z " fill="#ACD7FA" transform="translate(8,32)"/>
<path d="M0 0 C0.86625 0.185625 1.7325 0.37125 2.625 0.5625 C6.07845559 1.01017017 8.5958436 0.57943088 12 0 C13.67099977 0.31088368 15.33871537 0.64080332 17 1 C17.99 0.67 18.98 0.34 20 0 C20 0.99 20 1.98 20 3 C15.909982 3.70788773 12.97930299 3.99482575 9 3 C6.66508361 3.32205743 4.33157492 3.65458149 2 4 C1.34 3.67 0.68 3.34 0 3 C0 2.01 0 1.02 0 0 Z " fill="#ADD7FA" transform="translate(14,19)"/>
</svg>
